<svg id="Layer_1" data-name="Layer 1" xmlns="http://www.w3.org/2000/svg" xmlns:xlink="http://www.w3.org/1999/xlink" viewBox="0 0 500 500"><defs><style>.cls-1{fill:url(#linear-gradient);}.cls-2{fill:#8ec43d;}.cls-3{fill:#8c6239;}.cls-4{fill:#77c400;}.cls-5{fill:#77cd00;}</style><linearGradient id="linear-gradient" x1="442.26" y1="533.33" x2="100.76" y2="-58.17" gradientUnits="userSpaceOnUse"><stop offset="0" stop-color="#1e9cd7"/><stop offset="0.53" stop-color="#0075be"/><stop offset="0.99" stop-color="#005b97"/></linearGradient></defs><path class="cls-1" d="M500,397.79V0H0V400.64C70.23,383.34,159.2,373,256,373,347.36,373,431.76,382.21,500,397.79Z"/><path class="cls-2" d="M256,373c-96.8,0-185.77,10.34-256,27.64V500H500V397.79C431.76,382.21,347.36,373,256,373Z"/><polygon class="cls-3" points="121.83 418.87 124.2 371.87 103.82 360.83 111.41 359.76 124.48 368.65 124.63 357.88 128.77 355.83 145.7 415.49 121.83 418.87"/><polygon class="cls-4" points="90.6 317.51 76.7 357.35 97.67 367.41 153.32 359.52 169.66 344.41 141.93 310.23 90.6 317.51"/><polygon class="cls-5" points="91.37 329.86 136.72 323.43 150.13 311.75 112.92 265.56 95.65 263.53 74.61 321.97 91.37 329.86"/><polygon class="cls-3" points="373.75 431.3 392.75 372.4 370.61 351.45 380.61 352.67 394.19 368.41 398.05 354.78 404 353.58 405.23 435.11 373.75 431.3"/><polygon class="cls-4" points="368.54 291.92 337.34 337.81 360.56 357.71 433.93 366.6 459.83 352.97 436.22 300.13 368.54 291.92"/><polygon class="cls-5" points="365.32 307.88 425.11 315.12 446.11 304.85 414.55 233.52 393.3 225.07 346.72 292.16 365.32 307.88"/><polygon class="cls-3" points="66.14 464.91 67.81 432.01 53.54 424.28 58.85 423.53 68 429.75 68.11 422.21 71 420.78 82.85 462.54 66.14 464.91"/><polygon class="cls-4" points="44.28 393.95 34.56 421.84 49.23 428.88 88.19 423.36 99.63 412.79 80.22 388.86 44.28 393.95"/><polygon class="cls-5" points="44.83 402.6 76.57 398.1 85.95 389.93 59.91 357.59 47.82 356.17 33.1 397.08 44.83 402.6"/><polygon class="cls-3" points="429.25 481.76 441.77 451.29 430.89 439.26 436.15 440.31 442.7 449.23 445.31 442.16 448.52 441.76 445.8 485.09 429.25 481.76"/><polygon class="cls-4" points="432.25 407.58 413.8 430.64 425.3 442.16 463.87 449.92 478.17 443.76 467.83 414.73 432.25 407.58"/><polygon class="cls-5" points="429.89 415.91 461.32 422.23 472.89 417.65 459.09 378.49 448.16 373.13 420.67 406.8 429.89 415.91"/></svg>