<svg id="Layer_1" data-name="Layer 1" xmlns="http://www.w3.org/2000/svg" xmlns:xlink="http://www.w3.org/1999/xlink" viewBox="0 0 282.55 475.07"><defs><style>.cls-1{fill:url(#linear-gradient);}.cls-2{fill:#fff;}.cls-3{fill:url(#linear-gradient-2);}.cls-4{fill:url(#linear-gradient-3);}.cls-5{fill:url(#linear-gradient-4);}</style><linearGradient id="linear-gradient" x1="321.64" y1="32.9" x2="179.83" y2="278.51" gradientUnits="userSpaceOnUse"><stop offset="0" stop-color="#fbb03b"/><stop offset="1" stop-color="#f15a24"/></linearGradient><linearGradient id="linear-gradient-2" x1="162.83" y1="450.01" x2="162.83" y2="264.01" gradientUnits="userSpaceOnUse"><stop offset="0.53" stop-color="#fbb03b"/><stop offset="1" stop-color="#f15a24"/></linearGradient><linearGradient id="linear-gradient-3" x1="249.83" y1="489.01" x2="249.83" y2="313.22" gradientUnits="userSpaceOnUse"><stop offset="0.47" stop-color="#fbb03b"/><stop offset="1" stop-color="#f15a24"/></linearGradient><linearGradient id="linear-gradient-4" x1="336.83" y1="450.01" x2="336.83" y2="264.01" gradientUnits="userSpaceOnUse"><stop offset="0.44" stop-color="#fbb03b"/><stop offset="1" stop-color="#f15a24"/></linearGradient></defs><path class="cls-1" d="M249.82,14C132.65,10.08,64.33,159.75,141.06,246a142,142,0,0,0,44.27,35.47,140.13,140.13,0,0,0,42,13.74,143.29,143.29,0,0,0,45,0,140.31,140.31,0,0,0,42-13.74A142.14,142.14,0,0,0,358.6,246C435.29,159.73,367,10.08,249.82,14Z" transform="translate(-108.55 -13.94)"/><path class="cls-2" d="M184.94,215.72l26.51-89.43q2.9-10.37,5.9-14.59a15.36,15.36,0,0,1,5-4.12v-.45H220.8q-3.23,0-13.47,3.68-11.25,3.9-15.48,3.9a4.56,4.56,0,0,1-3.07-.78,3.58,3.58,0,0,1-.83-2.68,23,23,0,0,1,2.5-9.74A36.42,36.42,0,0,1,197,92a24.88,24.88,0,0,1,8.24-6q9.69-3.78,26.28-5.9A286.34,286.34,0,0,1,267.58,78q20.94,0,35.64,6.58A47.71,47.71,0,0,1,325.55,104q7.62,12.92,7.63,31.18a101.15,101.15,0,0,1-7.3,37q-7.29,18.66-19.32,31.24-28.18,29.85-75.29,29.85a144.91,144.91,0,0,1-27.68-2.45q-12.53-2.44-16.53-6a7,7,0,0,1-2.57-5.9A18.56,18.56,0,0,1,184.94,215.72ZM260.2,104.91l-22.36,84.64c-.15.52-.44,1.89-.89,4.12a56.24,56.24,0,0,1-4.56,13.59,45.82,45.82,0,0,1-5.68,8.46q3.22.22,7.24.22a84.47,84.47,0,0,0,16.14-1.28,40.43,40.43,0,0,0,12-4.4,48,48,0,0,0,10.47-8,65.93,65.93,0,0,0,14.2-21.94,72.75,72.75,0,0,0,5-27.07,69.83,69.83,0,0,0-4-24.28q-4-10.91-11.14-17.2A26.56,26.56,0,0,0,260.2,104.91Z" transform="translate(-108.55 -13.94)"/><path class="cls-3" d="M141.06,264h-.73V427a23,23,0,0,0,23,23h0a22,22,0,0,0,22-22V299.48A142,142,0,0,1,141.06,264Z" transform="translate(-108.55 -13.94)"/><path class="cls-4" d="M227.33,313.22V466.51a22.5,22.5,0,0,0,22.5,22.5h0a22.51,22.51,0,0,0,22.5-22.5V313.22a142.31,142.31,0,0,1-45,0Z" transform="translate(-108.55 -13.94)"/><path class="cls-5" d="M314.33,299.48V428a22,22,0,0,0,22,22h0a23,23,0,0,0,23-23V264h-.73A142.14,142.14,0,0,1,314.33,299.48Z" transform="translate(-108.55 -13.94)"/></svg>